<svg width="0" height="0" class="hidden">
  <symbol xmlns="http://www.w3.org/2000/svg" fill="none" viewBox="0 0 8 20" id="arrow">
    <path fill="#fff" d="m6.915 9.438-4.75-4.25c-.25-.25-.75-.25-1.125 0s-.25.75 0 1l4.125 3.75-4 3.75c-.25.25-.25.75 0 1 0 .124.375.25.5.25s.375-.126.5-.25l4.75-4.25a.585.585 0 0 0 0-1Z"></path>
  </symbol>
  <symbol xmlns="http://www.w3.org/2000/svg" fill="none" viewBox="0 0 75 72" id="burger">
    <path fill="#83B3D3" d="M71.08 47.7H5.1C2.81 47.7 1 49.6 1 52v3.5c0 2.4 1.9 4.3 4.11 4.3h.9v1.1c0 5.5 4.31 10.1 9.63 10.1h44.7c5.32 0 9.63-4.5 9.63-10.1v-1.1h.9c2.31 0 4.12-1.9 4.12-4.3V52a4 4 0 0 0-3.91-4.3Zm-3.91 13.2c0 3.9-3.01 7-6.72 7H15.64c-3.71 0-6.72-3.2-6.72-7v-1.1h58.25v1.1Zm5.1-5.4c0 .7-.6 1.3-1.2 1.3H5.02c-.7 0-1.2-.6-1.2-1.3V52c0-.7.6-1.3 1.2-1.3h65.97c.7 0 1.2.6 1.2 1.3.1 0 .1 3.5.1 3.5ZM16.64 39.4l5.41 4.1 5.32-4.1 5.3 4.1L38 39.4l5.42 4.1 5.31-4.1 5.31 4.1 5.42-4.1 5.31 4.1 6.22-4.7-1.7-2.5-4.52 3.4-5.31-4.1-5.42 4.1-5.31-4.1-5.31 4.1-5.42-4.1-5.31 4.1-5.31-4.1-5.32 4.1-5.41-4.1-5.31 4.1-4.52-3.4-1.7 2.5 6.22 4.7 5.3-4.1ZM9.02 32.5h60.95c0-.6.1-1.2.1-1.9v-1.2C69.37 13.7 55.34 1 38.1 1 20.75 1 6.71 13.7 6.01 29.5v1.2c0 .6 0 1.2.1 1.8h2.91ZM38.09 4c15.64 0 28.47 11.3 29.08 25.5H9.02C9.62 15.4 22.45 4 38.09 4Z"></path>
    <path fill="#83B3D3" d="M38.1 18.3c1.05 0 1.9-.9 1.9-2s-.85-2-1.9-2c-1.06 0-1.91.9-1.91 2s.85 2 1.9 2ZM30.27 13.2c1.06 0 1.9-.9 1.9-2s-.84-2-1.9-2c-1.05 0-1.9.9-1.9 2s.85 2 1.9 2ZM45.81 13.2c1.05 0 1.9-.9 1.9-2s-.85-2-1.9-2c-1.05 0-1.9.9-1.9 2s.85 2 1.9 2Z"></path>
  </symbol>
  <symbol xmlns="http://www.w3.org/2000/svg" fill="none" viewBox="0 0 20 20" id="calendar">
    <g fill="#000" opacity=".3">
      <path d="M7.75 12c.3 0 .5-.2.5-.5s-.2-.5-.5-.5-.5.2-.5.5.2.5.5.5Z"></path>
      <path d="M17 4h-2V2h-1v2H6V2H5v2H3c-.6 0-1 .4-1 1v11c0 .5.4 1 1 1h14c.5 0 1-.5 1-1V5c0-.6-.5-1-1-1Zm0 12H3V9h14v7ZM3 8V5h2v2h1V5h8v2h1V5h2v3H3Z"></path>
      <path d="M10 12c.3 0 .5-.2.5-.5s-.2-.5-.5-.5-.5.2-.5.5.2.5.5.5ZM12.25 12c.3 0 .5-.2.5-.5s-.2-.5-.5-.5-.5.2-.5.5.2.5.5.5ZM7.75 13c-.3 0-.5.2-.5.5s.2.5.5.5.5-.2.5-.5-.2-.5-.5-.5ZM5.5 12c.3 0 .5-.2.5-.5s-.2-.5-.5-.5-.5.2-.5.5.2.5.5.5ZM5.5 13c-.3 0-.5.2-.5.5s.2.5.5.5.5-.2.5-.5-.2-.5-.5-.5ZM10 13c-.3 0-.5.2-.5.5s.2.5.5.5.5-.2.5-.5-.2-.5-.5-.5ZM12.25 13c-.3 0-.5.2-.5.5s.2.5.5.5.5-.2.5-.5-.2-.5-.5-.5ZM14.5 12c.3 0 .5-.2.5-.5s-.2-.5-.5-.5-.5.2-.5.5.2.5.5.5ZM14.5 13c-.3 0-.5.2-.5.5s.2.5.5.5.5-.2.5-.5-.2-.5-.5-.5Z"></path>
    </g>
  </symbol>
  <symbol xmlns="http://www.w3.org/2000/svg" fill="none" viewBox="0 0 20 20" id="cross">
    <path fill="#000" d="m16.81 4.1-1.3-1.29-5.7 5.7-5.7-5.7-1.3 1.3 5.7 5.7-5.7 5.7 1.3 1.3 5.7-5.7 5.7 5.7 1.3-1.3-5.7-5.7 5.7-5.7Z"></path>
  </symbol>
  <symbol xmlns="http://www.w3.org/2000/svg" fill="none" viewBox="0 0 13 15" id="home-small">
    <path fill="#fff" d="m6.5.5-6 5.8v6.2h12V6.3L6.5.5Zm5 11h-10V6.7l5-4.8 5 4.8v4.8Z"></path>
    <path fill="#fff" d="M4.5 10.5h1V8h2v2.5h1V7h-4v3.5Z"></path>
  </symbol>
  <symbol xmlns="http://www.w3.org/2000/svg" fill="none" viewBox="0 0 16 14" id="page-view-card">
    <g fill="#000" clip-path="url(#a)">
      <path d="M16 12H0v2h16v-2ZM14 2v6H2V2h12Zm2-2H0v10h16V0Z"></path>
    </g>
    <defs>
      <clipPath id="a">
        <path fill="#fff" d="M0 0h16v14H0z"></path>
      </clipPath>
    </defs>
  </symbol>
  <symbol xmlns="http://www.w3.org/2000/svg" fill="none" viewBox="0 0 76 72" id="home">
    <path fill="#83B3D3" d="M30.62 65h16.06V41.2H30.62V65Zm2.91-20.9h10.14v18H33.53v-18Z"></path>
    <path fill="#83B3D3" d="m73.9 39.3 2.1-2.1-9.94-9.9V0H52.1v13.6L38.45 0 1 37.2l2.1 2.1 7.84-7.8v37.6H6.92V72h64.16v-2.9h-5.12V31.5l7.93 7.8ZM63.04 69.1h-49.2V28.5l24.6-24.4 24.6 24.4v40.6Zm0-44.7-7.93-7.9V2.9h7.93v21.5Z"></path>
    <path fill="#83B3D3" d="M30.82 27.1c0 4.3 3.51 7.7 7.73 7.7a7.8 7.8 0 0 0 7.83-7.7c0-4.3-3.51-7.7-7.83-7.7a7.72 7.72 0 0 0-7.73 7.7Zm7.83-5a5 5 0 0 1 5.02 4.9c0 2.7-2.2 4.9-5.02 4.9a5 5 0 0 1-5.02-4.9c0-2.7 2.2-4.9 5.02-4.9ZM20.98 41.2h-3.01v3.9h3.01v-3.9ZM26.9 41.2h-3v3.9h3v-3.9ZM20.98 47.2h-3.01v3.9h3.01v-3.9ZM26.9 47.2h-3v3.9h3v-3.9ZM53 41.2h-3v3.9h3v-3.9ZM58.93 41.2h-3.01v3.9h3.01v-3.9ZM53 47.2h-3v3.9h3v-3.9ZM58.93 47.2h-3.01v3.9h3.01v-3.9Z"></path>
  </symbol>
  <symbol xmlns="http://www.w3.org/2000/svg" fill="none" viewBox="0 0 26 26" id="info">
    <circle cx="13" cy="13" r="13" fill="#83B3D3"></circle>
    <path fill="#fff" fill-rule="evenodd" d="M12 7h2v2h-2V7Zm2 12h-2v-9h2v9Z" clip-rule="evenodd"></path>
  </symbol>
  <symbol xmlns="http://www.w3.org/2000/svg" fill="none" viewBox="0 0 20 20" id="favorite">
    <path fill="#000" d="M9.9 19c-.3 0-.6-.1-.8-.4-5.4-6.1-6.7-7.5-7-7.9C1.4 9.8 1 8.6 1 7.4 1 4.4 3.4 2 6.5 2 7.8 2 9 2.5 10 3.3c1-.8 2.3-1.3 3.5-1.3 3 0 5.5 2.4 5.5 5.4 0 1.3-.5 2.5-1.3 3.4l-7 7.9c-.2.2-.4.3-.8.3Zm-6-9.5c.3.4 3.5 4 6.1 6.9l6.2-7c.5-.5.7-1.2.7-2 0-1.8-1.5-3.3-3.3-3.3-1 0-2 .5-2.7 1.3-.3.3-.6.4-.9.4-.3 0-.6-.2-.8-.4-.7-.8-1.7-1.3-2.7-1.3-1.8 0-3.3 1.5-3.3 3.3-.1.9.3 1.6.7 2.1-.1 0-.1 0 0 0Z"></path>
  </symbol>
  <symbol xmlns="http://www.w3.org/2000/svg" fill="none" viewBox="0 0 75 76" id="present">
    <path fill="#83B3D3" d="M67.1 22.46H42.3c13.8-6.9 14.9-11.3 14.4-13.7-1.2-4.01-5.7-7.01-10-5.41-5.6 2.1-7.1 10.4-8.6 16.41-2-6.1-3.8-13.8-8.2-17.71-1.3-1.1-3.1-2.3-5.8-2-4 .4-9.8 5.4-7.5 11 2.3 5.4 9.7 8.81 14.6 11.51H8.9a2.9 2.9 0 0 0-2.9 2.9v11.31c0 1.6 1.3 2.9 2.9 2.9h.3V76H67V39.57h.1c1.6 0 2.9-1.3 2.9-2.9v-11.3c0-1.6-1.3-2.9-2.9-2.9ZM48.4 5.86c2.1-.3 5 1.3 5.3 3.2.4 2.8-3.4 5.3-5.1 6.4-2.5 1.7-4.9 2.6-7.3 4.1.9-3.7 2.5-13 7.1-13.7Zm-22.9 10c-2.2-1.5-6.5-4.4-6.4-7.8.1-3.61 5.7-6.61 8.8-3.91 3.9 3.4 5.7 11.1 7.1 16.61-3.2-1.5-6.3-2.8-9.5-4.9Zm6 57.14H12.1V39.57h19.4V73Zm0-36.53H9v-11h22.5v11Zm10.2 0V73h-7.2V25.57h7.2v10.9ZM64 73H44.6V39.57H64V73Zm2.9-36.53H44.6v-11h22.3v11Z"></path>
  </symbol>
  <symbol xmlns="http://www.w3.org/2000/svg" fill="none" viewBox="0 0 20 20" id="search">
    <path fill="#000" d="m19.5 18.008-3.7-3.68c1-1.292 1.7-2.983 1.7-4.872 0-4.376-3.6-7.956-8-7.956s-8 3.68-8 8.055c0 4.376 3.6 7.956 8 7.956 1.8 0 3.5-.597 4.9-1.69l3.7 3.679 1.4-1.492Zm-10-2.486c-3.3 0-6-2.685-6-5.967 0-3.282 2.7-5.967 6-5.967s6 2.685 6 5.967c0 3.282-2.7 5.967-6 5.967Z"></path>
  </symbol>
  <symbol xmlns="http://www.w3.org/2000/svg" fill="none" viewBox="0 0 16 14" id="page-view-grid">
    <g fill="#000" clip-path="url(#a)">
      <path d="M4 0H0v6h4V0ZM16 0h-4v6h4V0ZM10 0H6v6h4V0ZM4 8H0v6h4V8ZM16 8h-4v6h4V8ZM10 8H6v6h4V8Z"></path>
    </g>
    <defs>
      <clipPath id="a">
        <path fill="#fff" d="M0 0h16v14H0z"></path>
      </clipPath>
    </defs>
  </symbol>
  <symbol xmlns="http://www.w3.org/2000/svg" fill="none" viewBox="0 0 16 14" id="page-view-list">
    <g fill="#000" clip-path="url(#a)">
      <path d="M2 0H0v2h2V0ZM16 0H4v2h12V0ZM2 4H0v2h2V4ZM16 4H4v2h12V4ZM2 8H0v2h2V8ZM16 8H4v2h12V8ZM2 12H0v2h2v-2ZM16 12H4v2h12v-2Z"></path>
    </g>
    <defs>
      <clipPath id="a">
        <path fill="#fff" d="M0 0h16v14H0z"></path>
      </clipPath>
    </defs>
  </symbol>
  <symbol xmlns="http://www.w3.org/2000/svg" fill="none" viewBox="0 0 19 16" id="social-telegram">
    <path fill="#83B3D3" d="M16.88.1.94 6.25c-1.09.43-1.08 1.04-.2 1.31l4.1 1.28 9.47-5.98c.44-.27.85-.12.52.18L7.15 9.96l-.28 4.22c.41 0 .6-.19.83-.41l1.99-1.93 4.13 3.05c.77.42 1.31.2 1.5-.7l2.72-12.8c.28-1.12-.43-1.62-1.16-1.3Z"></path>
  </symbol>
  <symbol xmlns="http://www.w3.org/2000/svg" fill="none" viewBox="0 0 24 14" id="social-vk">
    <path fill="#83B3D3" fill-rule="evenodd" d="M23.45.95c.17-.55 0-.95-.8-.95h-2.62c-.67 0-.98.35-1.14.73 0 0-1.34 3.2-3.23 5.27-.61.6-.89.8-1.22.8-.17 0-.42-.2-.42-.74V.95c0-.66-.18-.95-.74-.95H9.15c-.42 0-.67.3-.67.6 0 .61.95.76 1.05 2.5v3.8c0 .84-.16.99-.5.99-.88 0-3.05-3.21-4.33-6.89-.25-.71-.5-1-1.17-1H.9C.15 0 0 .35 0 .73c0 .68.89 4.07 4.14 8.55C6.32 12.34 9.38 14 12.15 14c1.67 0 1.88-.37 1.88-1v-2.32c0-.73.16-.88.69-.88.38 0 1.05.2 2.61 1.67C19.11 13.22 19.4 14 20.41 14h2.62c.75 0 1.13-.37.91-1.1-.24-.72-1.09-1.77-2.21-3.02-.62-.7-1.54-1.47-1.81-1.86-.4-.49-.28-.7 0-1.14 0 0 3.2-4.43 3.53-5.93Z" clip-rule="evenodd"></path>
  </symbol>
  <symbol xmlns="http://www.w3.org/2000/svg" fill="none" viewBox="0 0 23 17" id="social-youtube">
    <path fill="#83B3D3" d="M18.707 0H3.274C1.413 0 .1 1.594.1 3.4v10.094C.1 15.406 1.413 17 3.274 17h15.651c1.642 0 3.175-1.594 3.175-3.4V3.4C21.88 1.594 20.567 0 18.707 0ZM7.76 12.537V4.463L15.095 8.5 7.76 12.537Z"></path>
  </symbol>
  <symbol xmlns="http://www.w3.org/2000/svg" fill="none" viewBox="0 0 18 17" id="star">
    <g clip-path="url(#a)">
      <path fill="#83B3D3" d="m9 0 2.1 6.5H18l-5.6 4 2.2 6.5L9 13l-5.6 4 2.2-6.5-5.6-4h6.9L9 0Z"></path>
    </g>
    <defs>
      <clipPath id="a">
        <path fill="#fff" d="M0 0h18v17H0z"></path>
      </clipPath>
    </defs>
  </symbol>
</svg>