<svg width="0" height="0" class="hidden">
  <symbol xmlns="http://www.w3.org/2000/svg" fill="none" viewBox="0 0 21 20" id="arrow">
    <path fill="#000" d="M13.11 9.47 8.36 5.22c-.25-.25-.75-.25-1.12 0-.38.25-.25.75 0 1l4.12 3.75-4 3.75a.76.76 0 0 0 0 1c0 .12.38.25.5.25.13 0 .38-.13.5-.25l4.75-4.25a.59.59 0 0 0 0-1Z"></path>
  </symbol>
  <symbol xmlns="http://www.w3.org/2000/svg" fill="none" viewBox="0 0 84 84" id="burger">
    <path fill="#000" d="M74.9 57.7H9.1C6.8 57.7 5 59.6 5 62v3.5c0 2.4 1.9 4.3 4.1 4.3h.9v1.1c0 5.5 4.3 10.1 9.6 10.1h44.6c5.3 0 9.6-4.5 9.6-10.1v-1.1h.9c2.3 0 4.1-1.9 4.1-4.3V62a4 4 0 0 0-3.9-4.3ZM71 70.9c0 3.9-3 7-6.7 7H19.6c-3.7 0-6.7-3.2-6.7-7v-1.1H71v1.1Zm5.1-5.4c0 .7-.6 1.3-1.2 1.3H9c-.7 0-1.2-.6-1.2-1.3V62c0-.7.6-1.3 1.2-1.3h65.8c.7 0 1.2.6 1.2 1.3.1 0 .1 3.5.1 3.5ZM20.6 49.4l5.4 4.1 5.3-4.1 5.3 4.1 5.3-4.1 5.4 4.1 5.3-4.1 5.3 4.1 5.4-4.1 5.3 4.1 6.2-4.7-1.7-2.5-4.5 3.4-5.3-4.1-5.4 4.1-5.3-4.1-5.3 4.1-5.4-4.1-5.3 4.1-5.3-4.1-5.3 4.1-5.4-4.1-5.3 4.1-4.5-3.4-1.7 2.5 6.2 4.7 5.3-4.1ZM13 42.5h60.8c0-.6.1-1.2.1-1.9v-1.2C73.2 23.7 59.2 11 42 11c-17.3 0-31.3 12.7-32 28.5v1.2c0 .6 0 1.2.1 1.8H13ZM42 14c15.6 0 28.4 11.3 29 25.5H13C13.6 25.4 26.4 14 42 14Z"></path>
    <path fill="#000" d="M42 28.3c1.05 0 1.9-.9 1.9-2s-.85-2-1.9-2c-1.05 0-1.9.9-1.9 2s.85 2 1.9 2ZM34.2 23.2c1.05 0 1.9-.9 1.9-2s-.85-2-1.9-2c-1.05 0-1.9.9-1.9 2s.85 2 1.9 2ZM49.7 23.2c1.05 0 1.9-.9 1.9-2s-.85-2-1.9-2c-1.05 0-1.9.9-1.9 2s.85 2 1.9 2Z"></path>
  </symbol>
  <symbol xmlns="http://www.w3.org/2000/svg" fill="none" viewBox="0 0 21 20" id="calendar">
    <path fill="#000" d="M8.14 12c.3 0 .5-.2.5-.5s-.2-.5-.5-.5-.5.2-.5.5.2.5.5.5Z"></path>
    <path fill="#000" d="M17.4 4h-2V2h-1v2h-8V2h-1v2h-2c-.6 0-1 .4-1 1v11c0 .5.4 1 1 1h14c.5 0 1-.5 1-1V5c0-.6-.5-1-1-1Zm0 12h-14V9h14v7Zm-14-8V5h2v2h1V5h8v2h1V5h2v3h-14Z"></path>
    <path fill="#000" d="M10.4 12c.3 0 .5-.2.5-.5s-.2-.5-.5-.5-.5.2-.5.5.2.5.5.5ZM12.64 12c.3 0 .5-.2.5-.5s-.2-.5-.5-.5-.5.2-.5.5.2.5.5.5ZM8.14 13c-.3 0-.5.2-.5.5s.2.5.5.5.5-.2.5-.5-.2-.5-.5-.5ZM5.9 12c.3 0 .5-.2.5-.5s-.2-.5-.5-.5-.5.2-.5.5.2.5.5.5ZM5.9 13c-.3 0-.5.2-.5.5s.2.5.5.5.5-.2.5-.5-.2-.5-.5-.5ZM10.4 13c-.3 0-.5.2-.5.5s.2.5.5.5.5-.2.5-.5-.2-.5-.5-.5ZM12.64 13c-.3 0-.5.2-.5.5s.2.5.5.5.5-.2.5-.5-.2-.5-.5-.5ZM14.9 12c.3 0 .5-.2.5-.5s-.2-.5-.5-.5-.5.2-.5.5.2.5.5.5ZM14.9 13c-.3 0-.5.2-.5.5s.2.5.5.5.5-.2.5-.5-.2-.5-.5-.5Z"></path>
  </symbol>
  <symbol xmlns="http://www.w3.org/2000/svg" fill="none" viewBox="0 0 20 20" id="circle">
    <path fill="#000" d="M5 10a5 5 0 1 1 10 0 5 5 0 0 1-10 0Z"></path>
  </symbol>
  <symbol xmlns="http://www.w3.org/2000/svg" fill="none" viewBox="0 0 20 20" id="confirm">
    <path fill="#000" d="m15 5-6.5 7.4-3.4-3.9L4 9.7l4.5 5.2 7.7-8.6L15 5Z"></path>
  </symbol>
  <symbol xmlns="http://www.w3.org/2000/svg" fill="none" viewBox="0 0 21 20" id="cross">
    <path fill="#000" d="M17.4 4.3 16.1 3l-5.7 5.7L4.68 3l-1.3 1.3L9.1 10l-5.7 5.7L4.68 17l5.7-5.7L16.1 17l1.3-1.3-5.71-5.7 5.7-5.7Z"></path>
  </symbol>
  <symbol xmlns="http://www.w3.org/2000/svg" fill="none" viewBox="0 0 21 20" id="discloser">
    <path fill="#000" fill-rule="evenodd" d="M4.61 7.34c.3-.29.77-.29 1.06 0l4.72 4.72 4.72-4.72a.75.75 0 0 1 1.06 1.07l-5.25 5.25c-.29.29-.76.29-1.06 0L4.61 8.4a.75.75 0 0 1 0-1.07Z" clip-rule="evenodd"></path>
  </symbol>
  <symbol xmlns="http://www.w3.org/2000/svg" fill="none" viewBox="0 0 21 20" id="favorite">
    <path fill="#000" d="M10.3 19a.9.9 0 0 1-.8-.4c-5.4-6.1-6.7-7.5-7-7.9A5.4 5.4 0 0 1 6.9 2c1.3 0 2.5.5 3.5 1.3a5.46 5.46 0 0 1 9 4.1c0 1.3-.5 2.5-1.3 3.4l-7 7.9c-.2.2-.4.3-.8.3Zm-6-9.5c.3.4 3.5 4 6.1 6.9l6.2-7c.5-.5.7-1.2.7-2 0-1.8-1.5-3.3-3.3-3.3-1 0-2 .5-2.7 1.3-.3.3-.6.4-.9.4-.3 0-.6-.2-.8-.4-.7-.8-1.7-1.3-2.7-1.3-1.8 0-3.3 1.5-3.3 3.3-.1.9.3 1.6.7 2.1-.1 0-.1 0 0 0Z"></path>
  </symbol>
  <symbol xmlns="http://www.w3.org/2000/svg" fill="none" viewBox="0 0 21 20" id="home-small">
    <path fill="#000" d="m10.4 3-6 5.8V15h12V8.8l-6-5.8Zm5 11h-10V9.2l5-4.8 5 4.8V14Z"></path>
    <path fill="#000" d="M8.4 13h1v-2.5h2V13h1V9.5h-4V13Z"></path>
  </symbol>
  <symbol xmlns="http://www.w3.org/2000/svg" fill="none" viewBox="0 0 21 20" id="info">
    <path fill="#000" fill-rule="evenodd" d="M9.4 4h2v2h-2V4Zm2 12h-2V7h2v9Z" clip-rule="evenodd"></path>
  </symbol>
  <symbol xmlns="http://www.w3.org/2000/svg" fill="none" viewBox="0 0 84 84" id="home">
    <path fill="#000" fill-rule="evenodd" d="M42 8.38 4.44 45.94l2.12 2.12L14 40.62V78h-4v3h65v-3h-5V40.62l7.44 7.44 2.12-2.12L70 36.38V9H56v13.38l-14-14Zm17 17 8 8V12h-8v13.38Zm8 12.24-25-25-25 25V78h50V37.62ZM34 50v24h16V50H34Zm3 21V53h10v18H37ZM21 50h3v4h-3v-4Zm9 0h-3v4h3v-4Zm-9 6h3v4h-3v-4Zm9 0h-3v4h3v-4Zm24-6h3v4h-3v-4Zm9 0h-3v4h3v-4Zm-9 6h3v4h-3v-4Zm9 0h-3v4h3v-4ZM37 36a5 5 0 1 1 10 0 5 5 0 0 1-10 0Zm5-8a8 8 0 1 0 0 16 8 8 0 0 0 0-16Z" clip-rule="evenodd"></path>
  </symbol>
  <symbol xmlns="http://www.w3.org/2000/svg" fill="none" viewBox="0 0 20 20" id="page-view-card">
    <path fill="#000" d="M18 15H2v2h16v-2ZM16 5v6H4V5h12Zm2-2H2v10h16V3Z"></path>
  </symbol>
  <symbol xmlns="http://www.w3.org/2000/svg" fill="none" viewBox="0 0 20 20" id="page-view-grid">
    <path fill="#000" d="M6 3H2v6h4V3ZM18 3h-4v6h4V3ZM12 3H8v6h4V3ZM6 11H2v6h4v-6ZM18 11h-4v6h4v-6ZM12 11H8v6h4v-6Z"></path>
  </symbol>
  <symbol xmlns="http://www.w3.org/2000/svg" fill="none" viewBox="0 0 21 20" id="minus">
    <path fill="#000" d="M3.4 9v2h14V9h-14Z"></path>
  </symbol>
  <symbol xmlns="http://www.w3.org/2000/svg" fill="none" viewBox="0 0 20 20" id="plus">
    <path fill="#000" d="M17 9h-6V3H9v6H3v2h6v6h2v-6h6V9Z"></path>
  </symbol>
  <symbol xmlns="http://www.w3.org/2000/svg" fill="none" viewBox="0 0 20 20" id="page-view-list">
    <path fill="#000" d="M4 3H2v2h2V3ZM18 3H6v2h12V3ZM4 7H2v2h2V7ZM18 7H6v2h12V7ZM4 11H2v2h2v-2ZM18 11H6v2h12v-2ZM4 15H2v2h2v-2ZM18 15H6v2h12v-2Z"></path>
  </symbol>
  <symbol xmlns="http://www.w3.org/2000/svg" fill="none" viewBox="0 0 84 84" id="present">
    <path fill="#000" d="M71.1 27.5H46.3c13.8-6.9 14.9-11.3 14.4-13.7-1.2-4-5.7-7-10-5.4-5.6 2.1-7.1 10.4-8.6 16.4-2-6.1-3.8-13.8-8.2-17.7-1.3-1.1-3.1-2.3-5.8-2-4 .4-9.8 5.4-7.5 11 2.3 5.4 9.7 8.8 14.6 11.5H12.9a2.9 2.9 0 0 0-2.9 2.9v11.3c0 1.6 1.3 2.9 2.9 2.9h.3V81H71V44.6h.1c1.6 0 2.9-1.3 2.9-2.9V30.4c0-1.6-1.3-2.9-2.9-2.9ZM52.4 10.9c2.1-.3 5 1.3 5.3 3.2.4 2.8-3.4 5.3-5.1 6.4-2.5 1.7-4.9 2.6-7.3 4.1.9-3.7 2.5-13 7.1-13.7Zm-22.9 10c-2.2-1.5-6.5-4.4-6.4-7.8.1-3.6 5.7-6.6 8.8-3.9 3.9 3.4 5.7 11.1 7.1 16.6-3.2-1.5-6.3-2.8-9.5-4.9Zm6 57.1H16.1V44.6h19.4V78Zm0-36.5H13v-11h22.5v11Zm10.2 0V78h-7.2V30.6h7.2v10.9ZM68 78H48.6V44.6H68V78Zm2.9-36.5H48.6v-11h22.3v11Z"></path>
  </symbol>
  <symbol xmlns="http://www.w3.org/2000/svg" fill="none" viewBox="0 0 21 20" id="search">
    <path fill="#000" d="m19.9 18-3.7-3.67c1-1.3 1.7-2.98 1.7-4.87a8 8 0 0 0-8-7.96c-4.4 0-8 3.68-8 8.06a8 8 0 0 0 12.9 6.26l3.7 3.68 1.4-1.5Zm-10-2.48a6 6 0 0 1-6-5.96 6 6 0 0 1 12 0 6 6 0 0 1-6 5.96Z"></path>
  </symbol>
  <symbol xmlns="http://www.w3.org/2000/svg" fill="none" viewBox="0 0 19 16" id="social-telegram">
    <path fill="#000" d="M16.88.1.94 6.25c-1.09.43-1.08 1.04-.2 1.31l4.1 1.28 9.47-5.98c.44-.27.85-.12.52.18L7.15 9.96l-.28 4.22c.41 0 .6-.19.83-.41l1.99-1.93 4.13 3.05c.77.42 1.31.2 1.5-.7l2.72-12.8c.28-1.12-.43-1.62-1.16-1.3Z"></path>
  </symbol>
  <symbol xmlns="http://www.w3.org/2000/svg" fill="none" viewBox="0 0 24 14" id="social-vk">
    <path fill="#000" fill-rule="evenodd" d="M23.45.95c.17-.55 0-.95-.8-.95h-2.62c-.67 0-.98.35-1.14.73 0 0-1.34 3.2-3.23 5.27-.61.6-.89.8-1.22.8-.17 0-.42-.2-.42-.74V.95c0-.66-.18-.95-.74-.95H9.15c-.42 0-.67.3-.67.6 0 .61.95.76 1.05 2.5v3.8c0 .84-.16.99-.5.99-.88 0-3.05-3.21-4.33-6.89-.25-.71-.5-1-1.17-1H.9C.15 0 0 .35 0 .73c0 .68.89 4.07 4.14 8.55C6.32 12.34 9.38 14 12.15 14c1.67 0 1.88-.37 1.88-1v-2.32c0-.73.16-.88.69-.88.38 0 1.05.2 2.61 1.67C19.11 13.22 19.4 14 20.41 14h2.62c.75 0 1.13-.37.91-1.1-.24-.72-1.09-1.77-2.21-3.02-.62-.7-1.54-1.47-1.81-1.86-.4-.49-.28-.7 0-1.14 0 0 3.2-4.43 3.53-5.93Z" clip-rule="evenodd"></path>
  </symbol>
  <symbol xmlns="http://www.w3.org/2000/svg" fill="none" viewBox="0 0 23 17" id="social-youtube">
    <path fill="#000" d="M18.7 0H3.28C1.41 0 .1 1.6.1 3.4v10.1c0 1.9 1.31 3.5 3.17 3.5h15.66c1.64 0 3.17-1.6 3.17-3.4V3.4C21.88 1.6 20.57 0 18.7 0ZM7.77 12.54V4.46L15.1 8.5l-7.33 4.04Z"></path>
  </symbol>
  <symbol xmlns="http://www.w3.org/2000/svg" fill="none" viewBox="0 0 21 20" id="star">
    <path fill="#000" d="m10.4 1 2.1 6.5h6.9l-5.6 4L16 18l-5.6-4-5.6 4L7 11.5l-5.6-4h6.9L10.4 1Z"></path>
  </symbol>
  <symbol xmlns="http://www.w3.org/2000/svg" fill="none" viewBox="0 0 21 20" id="trash">
    <path fill="#000" d="M17.7 4.3H3c-.3 0-.6.2-.6.5s.3.6.6.6h1.7v12c0 .3.3.6.6.6h10.2c.3 0 .6-.3.6-.6v-12h1.7c.3 0 .6-.3.6-.6s-.4-.5-.7-.5Zm-2.8 12.5H5.8V5.4h9.1v11.4ZM8.6 3.2H12c.3 0 .6-.3.6-.6s-.2-.6-.5-.6H8.6c-.3 0-.5.3-.5.6s.2.6.5.6Z"></path>
    <path fill="#000" d="M8.6 14c.3 0 .6-.3.6-.6V7.7c0-.3-.3-.6-.6-.6s-.6.3-.6.6v5.7c.1.3.3.6.6.6ZM12.1 14c.3 0 .6-.3.6-.6V7.7c0-.3-.3-.6-.6-.6s-.6.4-.6.6v5.7c0 .3.2.6.6.6Z"></path>
  </symbol>
</svg>